<svg width="78" height="26" viewBox="0 0 78 26" fill="none" xmlns="http://www.w3.org/2000/svg">
<path d="M6.93727 21.6875C6.06227 21.6562 5.21071 21.4141 4.38258 20.9609C3.57008 20.5234 2.85133 19.8906 2.22633 19.0625C1.61696 18.2188 1.14039 17.1875 0.79665 15.9688C0.4529 14.75 0.312275 13.3438 0.374775 11.75C0.437275 10.1562 0.718525 8.7422 1.21852 7.5078C1.73415 6.2734 2.36696 5.25 3.11696 4.4375C3.86696 3.6094 4.68727 3 5.57789 2.6094C6.48415 2.2188 7.37477 2.0703 8.24977 2.1641C8.78102 2.2266 9.24977 2.375 9.65602 2.6094C10.0623 2.8438 10.4139 3.1328 10.7107 3.4766C11.0076 3.8047 11.2576 4.1641 11.4607 4.5547C11.6639 4.9297 11.8279 5.2969 11.9529 5.6562C12.0467 5.75 12.1482 5.7969 12.2576 5.7969C12.5545 5.8125 12.8201 5.5938 13.0545 5.1406C13.3045 4.6719 13.5154 3.9062 13.6873 2.8438L14.3436 2.9141C14.2029 3.4453 14.0467 4.0625 13.8748 4.7656C13.7186 5.4531 13.5701 6.1641 13.4295 6.8984C13.3045 7.6328 13.1951 8.3594 13.1014 9.0781C13.0232 9.7969 12.9998 10.4453 13.031 11.0234C12.7967 10.9297 12.5779 10.8672 12.3748 10.8359C12.1717 10.7891 11.9842 10.7578 11.8123 10.7422C11.6248 10.7266 11.4529 10.7266 11.2967 10.7422C11.3279 9.7734 11.2967 8.8438 11.2029 7.9531C11.1248 7.0625 10.9686 6.2812 10.7342 5.6094C10.4998 4.9219 10.1873 4.3672 9.79665 3.9453C9.42165 3.5234 8.9529 3.2891 8.3904 3.2422C7.8904 3.1953 7.35133 3.3047 6.77321 3.5703C6.19508 3.8203 5.64821 4.2812 5.13258 4.9531C4.61696 5.6094 4.17165 6.4922 3.79665 7.6016C3.42165 8.7109 3.18727 10.0938 3.09352 11.75C3.04665 12.625 3.07789 13.5469 3.18727 14.5156C3.29665 15.4844 3.51539 16.3828 3.84352 17.2109C4.17165 18.0234 4.61696 18.7031 5.17946 19.25C5.74196 19.7812 6.45289 20.0391 7.31227 20.0234C7.96852 19.9766 8.5779 19.8047 9.1404 19.5078C9.62477 19.2422 10.1014 18.8438 10.5701 18.3125C11.0389 17.7812 11.3748 17.0156 11.5779 16.0156L12.3514 16.4844C12.2264 16.8906 12.0389 17.3984 11.7889 18.0078C11.5389 18.6016 11.1951 19.1797 10.7576 19.7422C10.3357 20.3047 9.80446 20.7734 9.16383 21.1484C8.53883 21.5391 7.79665 21.7188 6.93727 21.6875ZM25.992 19.1328C25.9451 19.3359 25.867 19.5625 25.7576 19.8125C25.6482 20.0469 25.492 20.2578 25.2889 20.4453C25.0857 20.6484 24.8357 20.7969 24.5389 20.8906C24.2576 21 23.9217 21.0078 23.531 20.9141C23.1404 20.8203 22.8279 20.6016 22.5936 20.2578C22.3748 19.9141 22.2186 19.4766 22.1248 18.9453C21.9842 19.1641 21.8045 19.3984 21.5857 19.6484C21.3826 19.8828 21.1326 20.0938 20.8357 20.2812C20.5545 20.4844 20.2264 20.6406 19.8514 20.75C19.492 20.875 19.0936 20.9219 18.656 20.8906C18.0623 20.8438 17.531 20.6797 17.0623 20.3984C16.6092 20.1328 16.2264 19.7891 15.9139 19.3672C15.6014 18.9297 15.367 18.4375 15.2107 17.8906C15.0701 17.3438 15.031 16.7734 15.0936 16.1797C15.156 15.5859 15.3123 15.0781 15.5623 14.6562C15.8279 14.2344 16.156 13.8984 16.5467 13.6484C16.9373 13.3828 17.3826 13.2031 17.8826 13.1094C18.3826 13.0156 18.8982 12.9922 19.4295 13.0391C20.1326 13.1172 20.7186 13.3281 21.1873 13.6719C21.656 14 22.0154 14.3672 22.2654 14.7734C22.3436 14.0547 22.367 13.2891 22.3357 12.4766C22.3045 11.6484 22.1795 10.8984 21.9607 10.2266C21.742 9.5391 21.406 8.9766 20.9529 8.5391C20.4998 8.0859 19.8826 7.8672 19.1014 7.8828C18.5545 7.8828 18.1014 7.9844 17.742 8.1875C17.3982 8.375 17.117 8.6016 16.8982 8.8672C16.6951 9.1328 16.5545 9.4062 16.4764 9.6875C16.3982 9.9531 16.3592 10.1641 16.3592 10.3203C16.3592 10.4766 16.406 10.6562 16.4998 10.8594C16.5936 11.0469 16.7264 11.2266 16.8982 11.3984C17.0701 11.5547 17.2732 11.6797 17.5076 11.7734C17.742 11.8672 18.0076 11.8906 18.3045 11.8438C18.5076 11.8125 18.6873 11.7422 18.8436 11.6328C18.9998 11.5234 19.1248 11.3984 19.2186 11.2578C19.3123 11.1172 19.3748 10.9688 19.406 10.8125C19.4529 10.6562 19.4764 10.5078 19.4764 10.3672C19.4764 10.2109 19.4295 10.0781 19.3357 9.9688C19.242 9.8438 19.1326 9.75 19.0076 9.6875C18.8826 9.625 18.742 9.6094 18.5857 9.6406C18.4295 9.6562 18.2889 9.7266 18.1639 9.8516C18.3045 9.8359 18.4451 9.8672 18.5857 9.9453C18.7264 10.0078 18.7967 10.1484 18.7967 10.3672C18.7967 10.5391 18.7264 10.6719 18.5857 10.7656C18.4451 10.8438 18.2889 10.875 18.117 10.8594C17.9451 10.8438 17.7889 10.7734 17.6482 10.6484C17.5076 10.5078 17.4373 10.2969 17.4373 10.0156C17.4373 9.75 17.5467 9.5234 17.7654 9.3359C17.9998 9.1484 18.2654 9.0547 18.5623 9.0547C18.9217 9.0547 19.2498 9.1953 19.5467 9.4766C19.8592 9.7578 20.0154 10.1484 20.0154 10.6484C20.0154 10.8203 19.9686 11.0078 19.8748 11.2109C19.7967 11.3984 19.6717 11.5781 19.4998 11.75C19.3279 11.9219 19.1014 12.0703 18.8201 12.1953C18.5389 12.3047 18.2107 12.3594 17.8357 12.3594C17.4607 12.3594 17.1248 12.2891 16.8279 12.1484C16.531 11.9922 16.281 11.8047 16.0779 11.5859C15.8748 11.3516 15.7186 11.1016 15.6092 10.8359C15.5154 10.5547 15.4686 10.2891 15.4686 10.0391C15.4686 9.7891 15.5467 9.4766 15.7029 9.1016C15.8592 8.7109 16.1014 8.3438 16.4295 8C16.7732 7.6562 17.1951 7.3594 17.6951 7.1094C18.2107 6.8594 18.8201 6.7344 19.5232 6.7344C21.4139 6.7344 22.7186 7.3984 23.4373 8.7266C24.156 10.0391 24.2732 12 23.7889 14.6094C23.6014 15.6562 23.4998 16.5078 23.4842 17.1641C23.4686 17.8203 23.5076 18.3438 23.6014 18.7344C23.6951 19.125 23.8279 19.3984 23.9998 19.5547C24.1873 19.7109 24.3826 19.8047 24.5857 19.8359C24.7576 19.8672 24.9217 19.8516 25.0779 19.7891C25.2029 19.7578 25.3201 19.6875 25.4295 19.5781C25.5545 19.4531 25.6404 19.2656 25.6873 19.0156L25.992 19.1328ZM22.031 17.9375C22.0154 17.375 22.0389 16.7812 22.1014 16.1562C21.9764 15.6719 21.7186 15.2266 21.3279 14.8203C20.9529 14.3984 20.5232 14.1484 20.0389 14.0703C19.6795 14.0078 19.3045 14.0156 18.9139 14.0938C18.5389 14.1562 18.2029 14.2969 17.906 14.5156C17.6092 14.7188 17.3748 15.0078 17.2029 15.3828C17.031 15.7578 16.9686 16.2188 17.0154 16.7656C17.0936 17.6094 17.3279 18.25 17.7186 18.6875C18.1248 19.125 18.7186 19.3203 19.4998 19.2734C20.0936 19.2422 20.5936 19.0938 20.9998 18.8281C21.4217 18.5469 21.7654 18.25 22.031 17.9375ZM31.5701 19.2266C31.9295 19.2266 32.2654 19.1016 32.5779 18.8516C32.8904 18.6016 33.1092 18.1797 33.2342 17.5859L33.7264 17.7734C33.6795 18.1484 33.531 18.5312 33.281 18.9219C33.031 19.2969 32.7107 19.6172 32.3201 19.8828C31.9295 20.1484 31.4842 20.3203 30.9842 20.3984C30.4998 20.4766 29.9998 20.3984 29.4842 20.1641C28.9217 19.8984 28.5154 19.5547 28.2654 19.1328C28.0154 18.7109 27.8592 18.2266 27.7967 17.6797C27.7342 17.1172 27.7264 16.5156 27.7732 15.875C27.8201 15.2188 27.8436 14.5391 27.8436 13.8359C27.8436 13.4297 27.8357 12.9531 27.8201 12.4062C27.8201 11.8438 27.8045 11.25 27.7732 10.625C27.7576 10 27.7264 9.3594 27.6795 8.7031C27.6326 8.0312 27.5857 7.375 27.5389 6.7344C27.0076 6.7969 26.4998 6.875 26.0154 6.9688C25.5467 7.0469 25.1482 7.1484 24.8201 7.2734C24.8045 7.1328 24.8045 7.0234 24.8201 6.9453C24.8201 6.8672 24.8279 6.7969 24.8436 6.7344C24.8436 6.6562 24.8436 6.5781 24.8436 6.5C24.8436 6.4062 24.8279 6.2812 24.7967 6.125C25.1717 6.0938 25.5857 6.0625 26.0389 6.0312C26.5076 6 26.9842 5.9688 27.4686 5.9375C27.4529 5.7188 27.4373 5.5078 27.4217 5.3047C27.406 5.0859 27.3826 4.875 27.3514 4.6719C27.2732 3.9375 27.1248 3.3516 26.906 2.9141C26.7029 2.4766 26.4764 2.1406 26.2264 1.9062C25.9764 1.6719 25.742 1.5156 25.5232 1.4375C25.3045 1.3438 25.1404 1.2812 25.031 1.25L25.1014 0.8047C25.3982 0.9297 25.7654 1.0156 26.2029 1.0625C26.6404 1.0938 27.0936 1.0938 27.5623 1.0625C28.0467 1.0156 28.5154 0.9375 28.9686 0.8281C29.4373 0.7188 29.8436 0.5781 30.1873 0.4062C30.031 0.8438 29.8904 1.5391 29.7654 2.4922C29.656 3.4453 29.5623 4.5547 29.4842 5.8203C30.2967 5.7734 30.8826 5.7109 31.242 5.6328C31.1639 5.7266 31.1248 5.8828 31.1248 6.1016C31.1248 6.3047 31.1482 6.4922 31.1951 6.6641C30.9295 6.6328 30.6482 6.6172 30.3514 6.6172C30.0545 6.6016 29.7498 6.5938 29.4373 6.5938C29.3904 7.5 29.3592 8.4453 29.3436 9.4297C29.3279 10.4141 29.3357 11.3906 29.367 12.3594C29.4139 13.3125 29.4764 14.25 29.5545 15.1719C29.6482 16.0781 29.7654 16.9141 29.906 17.6797C30.031 18.2266 30.2498 18.6172 30.5623 18.8516C30.8748 19.0859 31.2107 19.2109 31.5701 19.2266ZM53.8357 4.8125C53.5076 5.0312 53.1873 5.2734 52.8748 5.5391C52.5623 5.8047 52.2889 6.1484 52.0545 6.5703C51.8201 6.9922 51.6404 7.5234 51.5154 8.1641C51.3904 8.7891 51.3592 9.5859 51.4217 10.5547C51.4529 11.1953 51.4842 11.8906 51.5154 12.6406C51.5623 13.375 51.5701 14.1172 51.5389 14.8672C51.5076 15.6172 51.4217 16.3438 51.281 17.0469C51.1404 17.7344 50.906 18.3516 50.5779 18.8984C50.2498 19.4453 49.8123 19.8906 49.2654 20.2344C48.7186 20.5781 48.031 20.7656 47.2029 20.7969C46.5936 20.8281 46.0545 20.7422 45.5857 20.5391C45.1326 20.3359 44.7342 20.0625 44.3904 19.7188C44.0623 19.3594 43.7889 18.9531 43.5701 18.5C43.3514 18.0312 43.1717 17.5469 43.031 17.0469C42.7967 17.6875 42.5154 18.2812 42.1873 18.8281C41.8748 19.375 41.4607 19.8125 40.9451 20.1406C40.4451 20.4844 39.8357 20.6797 39.117 20.7266C38.4139 20.7891 37.5623 20.6484 36.5623 20.3047C35.8279 20.0547 35.2498 19.6953 34.8279 19.2266C34.406 18.7422 34.0936 18.2031 33.8904 17.6094C33.6873 17 33.5701 16.3672 33.5389 15.7109C33.5076 15.0391 33.5154 14.3984 33.5623 13.7891C33.6092 13.1641 33.6795 12.5938 33.7732 12.0781C33.867 11.5625 33.9373 11.1484 33.9842 10.8359C34.1404 9.8359 34.2654 8.8906 34.3592 8C34.4686 7.0938 34.4842 6.2891 34.406 5.5859C34.3279 4.8672 34.1248 4.2734 33.7967 3.8047C33.4842 3.3203 32.9842 3 32.2967 2.8438L32.4139 2.375C32.7107 2.4219 33.0623 2.4766 33.4686 2.5391C33.8748 2.6016 34.2967 2.6562 34.7342 2.7031C35.1717 2.7344 35.6014 2.75 36.0232 2.75C36.4607 2.7344 36.8514 2.6875 37.1951 2.6094C37.117 3.2188 37.0076 3.9766 36.867 4.8828C36.742 5.7734 36.617 6.7266 36.492 7.7422C36.367 8.7578 36.2498 9.7969 36.1404 10.8594C36.0467 11.9062 35.992 12.8906 35.9764 13.8125C35.9295 15.6719 36.1404 17.0312 36.6092 17.8906C37.0936 18.75 37.9373 19.1719 39.1404 19.1562C39.7498 19.1406 40.242 18.875 40.617 18.3594C40.992 17.8438 41.281 17.2031 41.4842 16.4375C41.7029 15.6719 41.8514 14.8594 41.9295 14C42.0076 13.125 42.0623 12.3281 42.0936 11.6094C42.1092 10.8906 42.1092 10.1953 42.0936 9.5234C42.0779 8.8359 42.031 8.2031 41.9529 7.625C41.8748 7.0469 41.7654 6.5312 41.6248 6.0781C41.4998 5.6094 41.3436 5.2344 41.156 4.9531C41.5936 4.9375 41.9686 4.9453 42.281 4.9766C42.5936 5.0078 42.8826 5.0469 43.1482 5.0938C43.4295 5.125 43.7186 5.1484 44.0154 5.1641C44.3123 5.1797 44.6639 5.1484 45.0701 5.0703C44.8982 5.5547 44.742 6.0547 44.6014 6.5703C44.4607 7.0859 44.3357 7.6484 44.2264 8.2578C44.1326 8.8672 44.0545 9.5469 43.992 10.2969C43.9451 11.0312 43.9217 11.8672 43.9217 12.8047C43.9373 13.7422 43.9842 14.5938 44.0623 15.3594C44.156 16.125 44.3123 16.7734 44.531 17.3047C44.7654 17.8203 45.0779 18.2031 45.4686 18.4531C45.8748 18.6875 46.3982 18.7422 47.0389 18.6172C47.6795 18.4766 48.1795 18.1562 48.5389 17.6562C48.8982 17.1562 49.156 16.5391 49.3123 15.8047C49.4842 15.0703 49.5779 14.25 49.5936 13.3438C49.6248 12.4219 49.6248 11.4844 49.5936 10.5312C49.5623 9.5625 49.5076 8.7422 49.4295 8.0703C49.3514 7.3828 49.2264 6.8203 49.0545 6.3828C48.8982 5.9453 48.6951 5.6172 48.4451 5.3984C48.1951 5.1641 47.8904 5.0156 47.531 4.9531L47.6014 4.4375C48.5545 4.5938 49.5389 4.6484 50.5545 4.6016C51.5701 4.5391 52.6326 4.3594 53.742 4.0625L53.8357 4.8125ZM53.8357 19.8828C54.1951 19.7578 54.492 19.5938 54.7264 19.3906C54.9607 19.1875 55.1404 18.9844 55.2654 18.7812C55.4217 18.5469 55.5232 18.3047 55.5701 18.0547C55.9139 16.4609 56.0857 14.9453 56.0857 13.5078C56.0857 12.0547 55.9764 10.8125 55.7576 9.7812C55.6951 9.4531 55.5779 9.1484 55.406 8.8672C55.2654 8.6328 55.0701 8.4141 54.8201 8.2109C54.5701 7.9922 54.2498 7.8516 53.8592 7.7891L53.8357 7.4141C54.1482 7.4453 54.4373 7.4688 54.7029 7.4844C54.9842 7.4844 55.2264 7.4844 55.4295 7.4844H56.0857C56.2732 7.5 56.4607 7.5078 56.6482 7.5078C56.8201 7.5234 56.992 7.5312 57.1639 7.5312C57.3514 7.5312 57.531 7.5469 57.7029 7.5781C57.656 8.1406 57.617 8.7188 57.5857 9.3125C57.5545 9.8906 57.531 10.4141 57.5154 10.8828C57.4842 11.4297 57.4686 11.9609 57.4686 12.4766C57.4373 13.0547 57.4139 13.6875 57.3982 14.375C57.3826 15.0469 57.3904 15.6875 57.4217 16.2969C57.4529 16.9062 57.5076 17.4453 57.5857 17.9141C57.6639 18.3672 57.7889 18.6641 57.9607 18.8047C58.0545 18.8672 58.1795 18.9297 58.3357 18.9922C58.4607 19.0547 58.6248 19.1172 58.8279 19.1797C59.0467 19.2422 59.3123 19.3047 59.6248 19.3672L59.6482 19.7656C59.3357 19.75 59.031 19.75 58.7342 19.7656C58.4529 19.7656 58.2029 19.7656 57.9842 19.7656C57.7186 19.7812 57.4686 19.7891 57.2342 19.7891C56.906 19.8047 56.5545 19.8359 56.1795 19.8828C55.867 19.9141 55.5154 19.9531 55.1248 20C54.7342 20.0469 54.3592 20.1016 53.9998 20.1641L53.8357 19.8828ZM56.2498 5.8438C55.7654 5.875 55.3904 5.7656 55.1248 5.5156C54.8592 5.25 54.7107 4.9531 54.6795 4.625C54.6482 4.2969 54.7342 3.9922 54.9373 3.7109C55.156 3.4141 55.4998 3.2344 55.9686 3.1719C56.4529 3.1094 56.8357 3.2109 57.117 3.4766C57.4139 3.7422 57.5857 4.0469 57.6326 4.3906C57.6795 4.7188 57.5936 5.0391 57.3748 5.3516C57.156 5.6484 56.781 5.8125 56.2498 5.8438ZM71.3436 25.9297C70.7967 25.9297 70.2576 25.8438 69.7264 25.6719C69.1951 25.5 68.7342 25.2109 68.3436 24.8047C67.9529 24.4141 67.6639 23.8828 67.4764 23.2109C67.2889 22.5547 67.2654 21.7344 67.406 20.75C67.5154 20 67.6014 19.2656 67.6639 18.5469C67.742 17.8125 67.7654 17.1406 67.7342 16.5312C67.7029 15.9062 67.5936 15.3594 67.406 14.8906C67.2186 14.4062 66.9139 14.0312 66.492 13.7656C66.1014 13.5 65.5936 13.3438 64.9686 13.2969C64.3436 13.25 63.5857 13.3594 62.6951 13.625C62.7264 14.2969 62.7654 14.9297 62.8123 15.5234C62.8748 16.1172 62.9451 16.6484 63.0232 17.1172C63.0701 17.5859 63.156 17.9922 63.281 18.3359C63.3748 18.6328 63.5076 18.8984 63.6795 19.1328C63.8514 19.3672 64.0701 19.4531 64.3357 19.3906L64.1717 19.9766C63.8592 19.8672 63.4998 19.7891 63.0936 19.7422C62.7029 19.6953 62.281 19.6875 61.8279 19.7188C61.3748 19.75 60.906 19.8203 60.4217 19.9297C59.9529 20.0391 59.4998 20.2031 59.0623 20.4219L58.9451 20.0234C59.1795 19.8516 59.3904 19.6953 59.5779 19.5547C59.7654 19.4141 59.9295 19.2344 60.0701 19.0156C60.2264 18.7969 60.3592 18.5156 60.4686 18.1719C60.5779 17.8281 60.6717 17.3672 60.7498 16.7891C60.8279 16.2109 60.9217 15.4609 61.031 14.5391C61.156 13.6016 61.2654 12.5938 61.3592 11.5156C61.4529 10.4375 61.5154 9.3281 61.5467 8.1875C61.5779 7.0469 61.5467 5.9844 61.4529 5C61.3592 4.2656 61.2186 3.6016 61.031 3.0078C60.9529 2.7578 60.8514 2.5156 60.7264 2.2812C60.617 2.0312 60.4842 1.8125 60.3279 1.625C60.1717 1.4219 59.992 1.2578 59.7889 1.1328C59.6014 1.0078 59.3904 0.9375 59.156 0.9219V0.5703C59.4529 0.6172 59.7889 0.6719 60.1639 0.7344C60.5545 0.7812 60.992 0.8125 61.4764 0.8281C61.9764 0.8438 62.531 0.8203 63.1404 0.7578C63.7654 0.6797 64.4607 0.5312 65.2264 0.3125V0.7812C64.9451 0.9375 64.6873 1.1016 64.4529 1.2734C64.2186 1.4297 63.9998 1.6562 63.7967 1.9531C63.6092 2.25 63.4451 2.6406 63.3045 3.125C63.1639 3.6094 63.0623 4.25 62.9998 5.0469C62.9217 5.7969 62.8357 6.6641 62.742 7.6484C62.6639 8.6328 62.6248 9.6484 62.6248 10.6953C62.6248 11.0703 62.6248 11.4531 62.6248 11.8438C62.6248 12.2188 62.6404 12.5938 62.6717 12.9688C63.4217 12.7031 64.0936 12.3594 64.6873 11.9375C65.281 11.5 65.781 11.0547 66.1873 10.6016C66.5936 10.1328 66.906 9.6797 67.1248 9.2422C67.3436 8.8047 67.4529 8.4297 67.4529 8.1172C67.4217 7.8828 67.367 7.6719 67.2889 7.4844C67.2107 7.3281 67.0936 7.1875 66.9373 7.0625C66.781 6.9219 66.5701 6.8438 66.3045 6.8281L66.3748 6.2422C67.3436 6.3672 68.2732 6.4219 69.1639 6.4062C70.0545 6.375 70.9451 6.1641 71.8357 5.7734L71.9295 6.2422C71.6951 6.3516 71.4842 6.4609 71.2967 6.5703C71.1092 6.6641 70.9295 6.7812 70.7576 6.9219C70.6014 7.0625 70.4451 7.25 70.2889 7.4844C70.1326 7.7031 69.9607 7.9922 69.7732 8.3516C69.6326 8.6484 69.4451 8.9922 69.2107 9.3828C68.9764 9.7734 68.6951 10.1641 68.367 10.5547C68.0545 10.9297 67.6873 11.2891 67.2654 11.6328C66.8592 11.9609 66.4139 12.2266 65.9295 12.4297C67.1795 12.3984 68.156 12.7266 68.8592 13.4141C69.5623 14.0859 69.9607 15.2031 70.0545 16.7656C70.0857 17.5625 70.0154 18.3672 69.8436 19.1797C69.6717 19.9766 69.5232 20.7266 69.3982 21.4297C69.2732 22.1484 69.2264 22.7891 69.2576 23.3516C69.2889 23.9297 69.5232 24.3828 69.9607 24.7109C70.3826 25.0391 70.7967 25.2344 71.2029 25.2969C71.6248 25.375 72.0154 25.3438 72.3748 25.2031C72.7342 25.0781 73.0467 24.8594 73.3123 24.5469C73.5936 24.2344 73.8123 23.8672 73.9686 23.4453C74.1092 23.0234 74.1717 22.6562 74.156 22.3438C74.1404 22.0469 74.0701 21.7969 73.9451 21.5938C73.8201 21.4062 73.656 21.2656 73.4529 21.1719C73.2654 21.0781 73.0623 21.0312 72.8436 21.0312C72.406 21.0312 72.0154 21.1953 71.6717 21.5234C71.3279 21.8516 71.1404 22.2812 71.1092 22.8125C71.0936 23 71.117 23.1562 71.1795 23.2812C71.242 23.4062 71.3201 23.5 71.4139 23.5625C71.5232 23.6406 71.6326 23.6953 71.742 23.7266C71.867 23.7578 71.9842 23.7578 72.0936 23.7266C72.2967 23.6953 72.4998 23.5781 72.7029 23.375C72.9217 23.1719 73.0232 22.9297 73.0076 22.6484C72.9139 22.7109 72.7967 22.7656 72.656 22.8125C72.5154 22.875 72.3826 22.9062 72.2576 22.9062C72.1482 22.9062 72.0467 22.8672 71.9529 22.7891C71.8748 22.7266 71.8357 22.6016 71.8357 22.4141C71.8357 22.1953 71.9139 22.0234 72.0701 21.8984C72.242 21.7891 72.4295 21.7344 72.6326 21.7344C72.8357 21.7344 73.0232 21.7969 73.1951 21.9219C73.367 22.0625 73.4529 22.2656 73.4529 22.5312C73.4686 23.0469 73.2967 23.4766 72.9373 23.8203C72.5936 24.1797 72.1873 24.3594 71.7186 24.3594C71.3748 24.3594 71.1014 24.2578 70.8982 24.0547C70.7107 23.8672 70.5779 23.625 70.4998 23.3281C70.4373 23.0469 70.4373 22.7344 70.4998 22.3906C70.5779 22.0469 70.7186 21.7266 70.9217 21.4297C71.1248 21.1484 71.3904 20.9062 71.7186 20.7031C72.0623 20.5156 72.4686 20.4219 72.9373 20.4219C73.2654 20.4219 73.5389 20.4844 73.7576 20.6094C73.9764 20.7344 74.1482 20.8906 74.2732 21.0781C74.4139 21.2812 74.5154 21.5 74.5779 21.7344C74.6404 21.9688 74.6717 22.2031 74.6717 22.4375C74.6873 22.8906 74.6248 23.3203 74.4842 23.7266C74.3436 24.1484 74.1326 24.5234 73.8514 24.8516C73.5701 25.1797 73.2186 25.4375 72.7967 25.625C72.3748 25.8281 71.8904 25.9297 71.3436 25.9297ZM71.6951 19.8828C72.0545 19.7578 72.3514 19.5938 72.5857 19.3906C72.8201 19.1875 72.9998 18.9844 73.1248 18.7812C73.281 18.5469 73.3826 18.3047 73.4295 18.0547C73.7732 16.4609 73.9451 14.9453 73.9451 13.5078C73.9451 12.0547 73.8357 10.8125 73.617 9.7812C73.5545 9.4531 73.4373 9.1484 73.2654 8.8672C73.1248 8.6328 72.9295 8.4141 72.6795 8.2109C72.4295 7.9922 72.1092 7.8516 71.7186 7.7891L71.6951 7.4141C72.0076 7.4453 72.2967 7.4688 72.5623 7.4844C72.8436 7.4844 73.0857 7.4844 73.2889 7.4844H73.9451C74.1326 7.5 74.3201 7.5078 74.5076 7.5078C74.6795 7.5234 74.8514 7.5312 75.0232 7.5312C75.2107 7.5312 75.3904 7.5469 75.5623 7.5781C75.5154 8.1406 75.4764 8.7188 75.4451 9.3125C75.4139 9.8906 75.3904 10.4141 75.3748 10.8828C75.3436 11.4297 75.3279 11.9609 75.3279 12.4766C75.2967 13.0547 75.2732 13.6875 75.2576 14.375C75.242 15.0469 75.2498 15.6875 75.281 16.2969C75.3123 16.9062 75.367 17.4453 75.4451 17.9141C75.5232 18.3672 75.6482 18.6641 75.8201 18.8047C75.9139 18.8672 76.0389 18.9297 76.1951 18.9922C76.3201 19.0547 76.4842 19.1172 76.6873 19.1797C76.906 19.2422 77.1717 19.3047 77.4842 19.3672L77.5076 19.7656C77.1951 19.75 76.8904 19.75 76.5936 19.7656C76.3123 19.7656 76.0623 19.7656 75.8436 19.7656C75.5779 19.7812 75.3279 19.7891 75.0936 19.7891C74.7654 19.8047 74.4139 19.8359 74.0389 19.8828C73.7264 19.9141 73.3748 19.9531 72.9842 20C72.5936 20.0469 72.2186 20.1016 71.8592 20.1641L71.6951 19.8828ZM74.1092 5.8438C73.6248 5.875 73.2498 5.7656 72.9842 5.5156C72.7186 5.25 72.5701 4.9531 72.5389 4.625C72.5076 4.2969 72.5936 3.9922 72.7967 3.7109C73.0154 3.4141 73.3592 3.2344 73.8279 3.1719C74.3123 3.1094 74.6951 3.2109 74.9764 3.4766C75.2732 3.7422 75.4451 4.0469 75.492 4.3906C75.5389 4.7188 75.4529 5.0391 75.2342 5.3516C75.0154 5.6484 74.6404 5.8125 74.1092 5.8438Z" fill="white"/>
</svg>
